<?xml version="1.0" standalone="no"?>
<!DOCTYPE svg PUBLIC "-//W3C//DTD SVG 20010904//EN"
 "http://www.w3.org/TR/2001/REC-SVG-20010904/DTD/svg10.dtd">
<svg version="1.0" xmlns="http://www.w3.org/2000/svg"
 width="141.000000pt" height="140.000000pt" viewBox="0 0 141.000000 140.000000"
 preserveAspectRatio="xMidYMid meet">

<g transform="translate(0.000000,140.000000) scale(0.100000,-0.100000)"
fill="#000000" stroke="none">
<path d="M0 700 l0 -700 705 0 705 0 0 700 0 700 -705 0 -705 0 0 -700z m1253
654 c51 -26 97 -75 108 -118 14 -51 6 -56 -101 -56 l-85 0 40 -23 c98 -56 121
-181 49 -267 -35 -41 -78 -62 -131 -63 l-44 0 8 -31 c4 -17 8 -78 8 -136 0
-97 -2 -110 -32 -173 -36 -76 -116 -166 -181 -204 -279 -164 -635 5 -685 327
-26 170 54 353 198 448 l42 28 -51 0 c-32 0 -67 8 -96 21 -47 23 -194 73 -214
73 -7 0 -20 6 -30 13 -17 12 -17 15 -1 52 21 52 51 83 100 106 37 17 76 19
553 19 452 0 517 -2 545 -16z"/>
<path d="M970 1110 c-19 -16 -46 -30 -60 -30 l-25 0 30 -25 c36 -29 45 -31 45
-6 0 10 11 35 25 55 13 20 23 36 22 36 -1 0 -18 -14 -37 -30z"/>
<path d="M1120 1045 c0 -33 -2 -35 -35 -35 -19 0 -35 -4 -35 -10 0 -5 16 -10
35 -10 33 0 35 -2 35 -35 0 -19 5 -35 10 -35 6 0 10 16 10 35 0 33 2 35 35 35
19 0 35 5 35 10 0 6 -16 10 -35 10 -33 0 -35 2 -35 35 0 19 -4 35 -10 35 -5 0
-10 -16 -10 -35z"/>
<path d="M550 1055 c-177 -50 -301 -224 -287 -404 8 -106 40 -176 116 -252 89
-88 149 -113 281 -114 86 0 101 3 162 32 137 65 220 189 226 340 5 98 -13 163
-65 241 -89 132 -277 200 -433 157z m124 -43 c-1 -7 -2 -22 -2 -33 -2 -16 -7
-20 -21 -16 -10 2 -25 1 -32 -4 -9 -6 4 -8 36 -8 28 0 44 3 38 6 -32 12 4 52
47 53 14 0 32 -5 40 -11 12 -8 10 -10 -10 -7 -15 3 -33 -3 -45 -15 -20 -18
-19 -18 30 -15 l49 3 43 -145 c23 -80 42 -156 43 -168 0 -14 -12 -36 -29 -51
-28 -26 -29 -29 -19 -73 10 -43 13 -46 50 -51 44 -6 53 -11 44 -26 -9 -14
-105 -33 -150 -29 -49 4 -59 26 -17 34 17 4 34 10 36 14 3 5 0 31 -7 59 -9 41
-15 51 -32 51 -55 0 -72 33 -97 180 l-12 75 -19 -105 c-20 -112 -33 -136 -82
-148 -27 -7 -32 -14 -42 -60 l-12 -51 34 -11 c53 -18 44 -40 -17 -40 -112 0
-187 42 -100 56 36 6 40 9 50 51 11 42 10 45 -19 74 -16 17 -30 35 -30 41 0
22 82 303 91 314 6 7 27 10 52 7 38 -4 40 -3 25 10 -10 8 -18 19 -18 26 0 16
31 13 52 -6 17 -15 18 -15 18 4 0 11 3 23 7 27 10 9 28 1 27 -12z"/>
<path d="M528 870 l-16 -50 48 0 48 0 7 40 c8 50 2 60 -39 60 -30 0 -33 -4
-48 -50z"/>
<path d="M696 912 c-2 -4 -2 -27 1 -50 l6 -42 48 0 c27 0 49 1 49 3 0 2 -7 24
-16 50 -15 43 -18 47 -49 47 -19 0 -36 -4 -39 -8z"/>
</g>
</svg>
