<?xml version="1.0" encoding="UTF-8" standalone="no"?>
<svg width="1287.34680175781" height="515" version="1.1" id="svg7" sodipodi:docname="banner_default_all.svg" inkscape:version="1.3.2 (091e20e, 2023-11-25, custom)" xmlns:inkscape="http://www.inkscape.org/namespaces/inkscape" xmlns:sodipodi="http://sodipodi.sourceforge.net/DTD/sodipodi-0.dtd" xmlns:xlink="http://www.w3.org/1999/xlink" xmlns="http://www.w3.org/2000/svg" xmlns:svg="http://www.w3.org/2000/svg">
  <sodipodi:namedview id="namedview7" pagecolor="#ffffff" bordercolor="#666666" borderopacity="1.0" inkscape:showpageshadow="2" inkscape:pageopacity="0.0" inkscape:pagecheckerboard="0" inkscape:deskcolor="#d1d1d1" inkscape:zoom="0.61953125" inkscape:cx="660.983606557377" inkscape:cy="386.582597730139" inkscape:window-width="1920" inkscape:window-height="1017" inkscape:window-x="-8" inkscape:window-y="-8" inkscape:window-maximized="1" inkscape:current-layer="g5" />
  <defs id="defs1">
    <path id="a" d="M 0,0 H 1280 V 515 H 0 Z" />
  </defs>
  <g fill="none" fill-rule="evenodd" id="g7">
    <mask id="b" fill="#ffffff">
      <use xlink:href="#a" id="use1" />
    </mask>
    <g mask="url(#b)" id="g6" transform="translate(8.07061790668329,-406.759142496847)" />
    <g transform="matrix(0.628625472887769,0,0,0.577179864927099,155.846153846154,-472.779319041609)" id="g5" style="fill:#c0c0c0">
      <g id="g8" transform="matrix(1.00626918714111,0,0,1,1.55423021468738,0)">
        <use fill="#845978" xlink:href="#a" id="use2" style="fill:#a9a9a9" transform="matrix(1.59077231695085,0,0,1.73256217128487,-247.915747241725,819.11956353731)" />
        <path fill="#ffffff" opacity="0.101" d="m 1799.95987963891,1249.95238398105 -850.939967903704,9.77014341274 839.221921765284,-61.63904517521 -15.21581544634,-33.35383099605 -834.096224674013,81.17020544826 798.275426278823,-132.37760116802 -30.07874022066,-31.40818522091 -777.506772316937,149.85731526157 720.783189568707,-195.83925267045 -43.56922367102,-28.29467875211 -698.783410230699,213.03502957654 620.387390170519,-254.416508507441 -55.5986439318,-24.038663124168 L 887.113945837517,1209.55015032646 1379.75331594785,909.322066722644 1314.45656569709,890.391906829753 857.380910732191,1202.85531707041 1205.40935606819,865.135694004066 1132.77934603809,852.125624469979 828.018330992971,1195.85930758337 1017.4926780341,836.957294290641 940.414808425278,830.274291750735 794.628645937806,1194.60153344696 817.320633901698,824.987989756827 H 738.707450351056 L 761.30602607823,1192.98647168298 618.774122367098,830.054578450905 541.649945837518,836.634822770582 729.335089267804,1197.35640020637 423.248738214651,852.125624469979 350.621123370118,865.135694004065 697.139803410232,1201.39033639124 244.298836509536,889.666514919851 178.871149448352,908.511493656501 671.470599799389,1210.71226467234 83.1810912738292,942.414945922572 27.5928264794452,966.454961128583 645.272060180541,1219.76174846165 -48.9229729187483,1006.71556420988 l -43.7800000000015,28.23687725323 722.4949488465317,197.67030950919 -780.892766298888,-150.50969475183 -30.081933801403,31.4091992823 794.8159799398,131.79924815878 -829.889480441305,-81.9415681409 -15.456930792377,33.33523987068 842.472188565684,63.05298476474 -854.690828485445,-9.81577617502 v 33.99302768831 l 850.950347041108,-9.77014341275 -839.23629287862,61.64174933891 15.21741223671,33.35011277097 834.108200601791,-81.1681773255 -798.290595787345,132.37658710663 30.081933801402,31.40919928232 777.517151454358,-149.85765328203 -720.7911735205558,195.83857662953 43.5692236710136,28.29805895671 698.7874022066162,-213.03570561745 -620.3889869608792,254.41481840512 55.584272818455,24.0393391651 585.7354423269762,-267.13047211745 -492.641765295884,300.2240273583 65.29515346038,18.93354009749 457.093219658972,-312.47355085449 -348.046010030084,337.72807357789 72.629211634905,13.01175963638 304.767402206616,-343.73807737938 -189.476742226677,358.90404141549 77.076272818449,6.6830025399 145.794146439331,-364.32487555298 -22.695979939815,369.61185358781 h 78.613183550641 l -22.594583751265,-368.00625639675 142.530306920756,362.93899166175 77.121781344047,-6.58058234014 -187.683546639925,-360.72056337439 306.084754262775,345.23246583869 72.63001003009,-13.01175963638 -346.513889668996,-336.24889603935 452.835378134396,311.71706106217 65.43646940823,-18.84396467527 -492.588272818452,-302.195024668 588.265556670002,268.28920625871 55.5930551655,-24.0393391651 -617.685620862596,-253.30577327168 694.205412236716,213.0458462313 43.7736128385,-28.23755329415 -722.516505516537,-197.6753798161 780.918314944837,150.51476505875 30.07235305917,-31.40919928232 -794.800810431278,-131.80195232245 829.882294884668,81.94427230457 15.44655165495,-33.33692997295 -842.390752256766,-63.04690039645 854.617376128376,9.81138190902 v -33.99302768831" id="path2" style="opacity:0.256;fill:#c0c0c0;stroke-width:0.519491" />
        <path fill="#845978" d="M -247.29588766299,1708.98044523538 H 1790.22367101304 V 1452.99759795136 H -247.29588766299 Z" id="path3" style="fill:#c0c0c0;stroke-width:1.2359" />
        <path fill="#62495b" d="m 1218.73219230425,1283.86891548483 c 1.44120091006,5.12884412964 -0.49684848375,20.05523177263 -4.82895889344,29.09530624268 -4.4410087075,9.27899578043 -6.76020214363,20.17557732155 -6.5849439456,28.84753599486 0.17695973394,8.6719586733 1.18426898867,16.60237639067 3.00831547696,23.44791438012 1.03793690099,3.89707204053 2.42298712623,7.21188399871 2.60334993198,10.09486781072 0.19737816478,2.28479564229 -0.31988874981,4.30058358697 -2.30728268481,6.11815533338 -4.42909795618,4.06166227659 -5.77331131975,0.67251924406 -11.61128100382,0.30440344731 -5.83967121997,-0.36457622178 -5.7460867453,1.36273636295 -10.19900620412,5.08282965505 -4.44951638701,3.71655371713 -12.72919009225,3.13783320975 -18.63862428426,1.3910529627 -2.93685096902,-0.86896565482 -3.79952967198,-1.92021942051 -3.72125902043,-2.94846594893 -0.0884798669,-1.13089420249 1.06005686774,-2.25293946757 1.94996014514,-3.0971280976 1.93804939381,-1.85296749612 13.55103193353,-9.44535580396 15.77664089499,-11.30894202499 2.22901203326,-1.86181643353 4.77791281634,-3.04757404804 8.28477831295,-8.10562667831 2.55570692669,-3.68646732989 2.34811954649,-15.75995754811 2.85347570976,-17.17755732307 0.50365462737,-1.41582998748 0.19907970068,-44.81101910368 0.37944250643,-46.90467769766 0.17525819803,-2.0918888065 0.0544491489,-20.49413906875 -0.26203652911,-26.3786824542 -0.31818721391,-5.88631317294 -3.15294602873,-36.98324906041 -3.12742299018,-41.84485527991 0.0255230385,-4.28288571213 -0.37433789872,-18.51197708628 -0.13271980046,-21.85864521918 0.69762972034,-9.4860609161 2.52167620863,-19.91541856136 3.31969654726,-24.19653448599 -6.88611580048,-9.3621757922 -29.83643206359,-35.88421103264 -29.02479943774,-48.15237787414 -0.0969875465,-1.58749937345 0.13612287227,-2.98209191112 0.77590037188,-4.13245377594 2.00440929404,-3.61567583052 7.05967246262,-11.83987827029 18.66074425102,-25.30796102618 1.8853017808,-2.18922711813 9.54391488136,-14.94762509279 11.14335863041,-17.32975904672 4.26745204537,-6.35353706881 8.23883684357,-10.67181853062 11.93627436135,-13.14421164625 -0.0459414694,0.20706513567 -0.0935844747,0.41413027133 -0.14463055178,0.621195407 0.6806143613,-0.44775623353 1.35272104309,-0.83180011764 2.01461850945,-1.15390143979 0.40326400907,-0.32918047209 0.77079576417,-0.60172774468 1.08557990627,-0.80525330537 0.80482648224,-0.8725052298 1.90061560393,-1.75031982203 2.97768783071,-2.55380333992 0.81843876946,-2.19453648059 2.24772892819,-3.56612178096 4.26915358126,-4.4545550981 -5.29177665912,-2.77502677546 -11.00213115044,-9.95328481198 -13.384281415,-19.98267048577 -1.34931797129,-5.67570846231 -2.06396305065,-11.30009308755 -1.89891406805,-16.3492967804 a 62.28642327458,64.7848406520232 0 0 1 -0.006806144,-2.8033433752 c 0.0850767951,-3.61744561801 -0.0629568284,3.61567583051 0,0 0.0510460771,-2.14675221852 0.42538397582,-5.47572247657 0.51556537869,-8.08792880348 a 12.3191199395716,12.8132613866757 0 0 1 -0.63637442782,-0.61942561952 7.36254585338764,7.65787044477146 0 0 1 -2.13032295089,-4.76072833289 c -0.14633208768,-1.87066537095 0.69762972034,-2.97324297371 -0.0306276463,-4.6810878961 -1.59263760544,-3.67761839247 -1.65559443386,-3.90415119048 0.72485429479,-7.12162483702 6.25484598036,-8.454274812717 20.36228015426,-11.397431399187 30.12569316715,-10.156810372667 12.20511703406,1.55033383629 24.01888081036,6.05444298396 34.94444284516,11.669978671787 6.21571065459,3.19446640925 12.3378368345,6.5800698668 18.66244578691,9.53915454064 5.74268367349,2.69184676369 11.89713903557,5.4031611897 18.26428638555,5.96595360973 7.06818014211,0.62827455694 14.21122786399,-0.48315198323 21.25218343166,0.68136818148 3.01512162057,0.4973102831 7.24854294787,0.7680877682 9.54221334546,3.09004894767 0.42198090401,0.42651878372 3.75358820258,5.57129100072 3.07977998489,5.91462977268 0.16164591081,-0.39997197146 -1.64368368255,-2.43522757846 -1.93294478611,-2.77148720049 -1.34081029176,-1.56095256119 -2.89771564324,-2.34673820424 -4.92254336811,-2.42106927858 -4.29467661982,-0.17874853592 -8.65060853215,0.42828857121 -12.83298378236,1.38928317521 0.4662208375,0.16812981101 8.52639641122,3.53957496869 8.31710749512,4.03865503929 -0.0425383976,-0.60703710714 -7.05626939081,-1.20876485182 -7.56162555407,-1.25123975144 a 46.6220837492076,48.4921770711205 0 0 0 -13.49317971282,0.94506651664 c 4.86298961151,0.113266399 9.54561641726,1.17867846458 14.23675090255,2.34850799173 -2.67481443992,0.2495400353 -5.35643502346,0.49023113316 -8.01593564025,0.92913842929 -4.21300289646,0.67959839399 -8.11292318671,2.26178840499 -12.15747402876,3.56612178095 2.88070028422,0.35926685933 5.60826233714,-0.0937987367 8.4089904339,-0.69021711889 4.88170650644,-1.01408822853 9.91144663646,-1.54679426132 14.89524529709,-1.1539014398 4.3899626304,0.35749707184 9.48436112475,1.43706743729 12.38207676799,5.11999519222 1.1485367347,1.46184446207 2.06906765836,3.22455279648 2.31238729253,5.10229731737 0.0374337898,0.28847535995 -0.22290120332,1.61758576069 -0.56661145578,2.73255187583 7.70795764174,-1.52732659899 16.33814774306,-1.24416060149 22.26970190181,3.57497071839 2.85177417386,2.31842160449 4.93445411944,6.12346469584 5.86008965081,9.71082392661 0.77930344369,3.02279702327 0.98178621618,6.28274556943 0.38284557824,9.35509664226 -0.61255292518,3.13960299724 -1.85977874227,3.86344607833 -0.32669489343,6.94995545103 2.23071356916,4.52534659749 5.73417599397,8.64364207356 9.88252052611,11.36911479946 2.4587193802,1.61227639823 5.34282273622,2.79095486281 8.29839060018,2.60158760198 0.75207886923,-0.0460144746 8.06357864554,-3.00863872338 7.35403817387,-3.66699966757 0.3130826062,0.22299322304 -3.57833000454,3.69885584229 -3.89651721845,3.89707204054 -2.90962639458,1.81403217146 -6.40968574756,2.06534199423 -9.67663468181,1.32557082577 -5.24923826155,-1.18044825205 -10.77582687532,-3.63514349284 -15.50949975818,-6.20133534514 2.61526068331,3.75725882926 4.87319882692,7.7782159937 7.21451222981,11.72130250883 -2.31749190024,-2.17506881827 -4.60946076193,-4.38199381125 -6.95928184432,-6.51812730486 -3.15975217235,-2.85820678721 -6.47604564779,-5.73411144928 -10.46784887683,-7.24374017343 -3.72806516404,1.72200322227 -7.14304772186,4.13422356343 -10.40319051251,6.65440094115 6.73127603328,-0.44244687109 14.59917804994,0.32210132214 19.35837397133,5.89339232288 2.27665503856,2.62459483928 3.79612660017,6.02081702174 3.47283477855,9.60463667755 -0.0595537566,0.69375669387 -2.61015607559,8.61001611134 -3.35883187302,8.03660496642 1.95506475283,0.73623159349 1.32719800454,-10.38865253312 0.84566334391,-11.36203564951 -2.12521834317,-4.28819507457 -6.64109463041,-6.33937876893 -11.10762637645,-6.50750857995 -8.10611704312,-0.30794302228 -15.96551138025,3.35551707033 -23.356983344,6.38362345605 -10.8728144218,4.4545550981 -21.81879488745,6.23850088232 -31.82552753449,3.16791959698 5.10290617386,11.15320072636 9.59666249437,22.79486279839 18.98914068034,31.34824571024 14.51580279067,12.48585070207 33.93713359042,16.09267759517 51.7454083539,18.22350172633 23.21575586403,2.61220632689 45.57904224051,3.70593499222 63.33286785508,19.13848185573 12.09281566445,10.27361634664 32.32748062596,14.61490504575 48.42911487847,13.71585300369 -21.46827849137,1.19991591439 -30.38432662444,21.25514768702 -45.12813522615,33.03131360787 -14.74721167351,11.77439613336 -34.97847356323,7.43310743426 -52.73910532141,6.08275958369 -22.40582477407,-1.8759747334 -26.46568943924,22.60018617512 -34.86617219361,37.93362493951 -7.75560064704,12.94776523549 -24.28942501898,20.13133263445 -38.21819792303,18.56684049829 -12.09281566443,-1.7644781219 -25.6591614211,-13.43622658116 -38.66229879378,-17.69079569354 0.79461726682,4.04927376419 1.59433914135,7.62778405754 1.7781050189,8.15164115291 0.36072561149,1.0618724906 5.57593315498,11.59741738493 9.51158569921,21.48522005998 2.48934702646,6.2526591822 4.92084183221,16.68909597739 1.99590161451,31.29161251075 -2.9266417536,14.60074674586 -5.52148400606,20.86756422793 -3.84547114135,37.73363895377 1.09068451399,11.04347390232 6.51688250946,15.3422877018 2.01461850945,25.90968877085 -0.17525819803,0.52031752039 -0.37263636281,1.05479334067 -0.59383603024,1.60519724829 -3.29417350871,8.19942541499 -4.46653174604,11.84164805777 -8.06528018143,12.06287149331 -0.98348775208,0.054863412 -1.99420007862,-0.14335278622 -3.08998920031,-0.62296519449 -3.70084058958,-1.61050661075 -5.65930841423,-9.7568384012 -5.28837358732,-16.74926875186 0.0323291822,-2.17683860575 0.30287339078,-4.27403677469 0.83375259259,-6.0385148966 1.17065670145,-3.89884182801 2.17796595618,-6.72519244051 3.01342008467,-9.16218980646 0.51386384279,-1.64590236044 0.94605396223,-3.10951660999 1.3101826455,-4.67046917119 0.91882938777,-3.93423757771 -4.50396553591,-38.32297818606 -5.30368741044,-42.44658302459 -0.0850767952,-0.43359793366 -0.17015359032,-1.05479334068 -0.2620365291,-1.82996025882 -0.80822955405,-6.25442896968 -1.92273557068,-23.33995734357 -4.14323992443,-28.40508912377 -2.47063013152,-5.63677313764 -4.61116229782,-5.15539094191 -10.47975962815,-22.15242994157 -0.62956828421,-1.82465089638 -1.23531506576,-3.61390604304 -1.82234495239,-5.36776544003 -8.82586673018,1.96092453265 -15.86852383377,4.14130271337 -21.39170937573,5.97657233463 -1.53988999245,0.5096987955 -4.1806737143,1.64944193542 -6.97629720335,2.65822080149 0.44750394255,3.10243746006 0.91542631596,5.70048548708 1.32209339728,7.14463207431 z m -19.92328389122,-115.92108022475 c 1.84956952684,-9.01352765779 3.90672643388,-19.04291333158 4.2878704762,-21.46575239766 0.64318057144,-4.12006526356 2.30728268482,-8.83123954689 1.46332087681,-14.81843060644 -0.66019593047,-4.67400874616 -1.28976421468,-8.81000209708 -2.24943046411,-12.89290182347 -1.27104731973,1.49900999925 -2.04524615571,2.36797565406 -2.04524615571,2.36797565406 0,0 -15.5690535148,14.02556581345 -17.83890240973,19.19688484272 0.75548194104,1.85827685856 4.90552800908,8.8861029589 9.00112492821,15.66084944899 2.91643253819,4.77311684528 5.77841592746,9.37987366703 7.38126274833,11.9513748818 z m 104.39773534425,-120.59331918344 c 0.38795018595,0.62296519449 0.79461726683,1.23885123904 1.22170277855,1.8423487712 6.60876544824,9.35332685478 17.44414608018,3.91476991538 25.90928719887,0.91321034193 2.02482772488,-0.71853371864 4.2368243991,-1.35388742553 6.53900247622,-1.82996025882 0.10549522594,-0.76631798072 0.14803362358,-1.55741298623 0.12591365683,-1.65829087283 -0.33690410884,-1.52909638647 -1.35442257899,-2.86882551213 -2.47403320333,-3.90238140299 -2.75478662738,-2.5325658901 -6.72106681786,-2.55911270237 -10.21261849134,-2.13790328109 -6.7925313258,0.81941160525 -12.43312284509,4.3182814618 -18.85301780807,6.20487492013 -0.74357118973,0.21945364806 -1.49735159487,0.4070511214 -2.25623660773,0.56633199499 z" id="path4" style="fill:#696969;stroke-width:1.73532" />
        <path fill="#62495b" d="m 1469.9350423096,1282.17699864979 0.62446367651,-0.394662609 0.37603943461,0.72207329361 c 0.4679223734,0.90259161702 0.97668160847,1.64767214793 1.42929015874,2.30603309211 0.3675317551,0.53624560775 0.71464507937,1.04417461576 0.9919954316,1.56272234867 l 0.10889829779,0.20175577322 c 7.42209961,13.83265897766 9.0385587181,28.04405247698 9.08450018749,37.53719254302 0.0663599002,13.84150791507 -4.23852593503,31.68981469471 -7.09030010887,43.50137636525 l -0.41177168859,1.70253555994 c 0.36072561148,3.17145917196 0.8371556644,7.66671938219 1.38675176115,14.43615650982 0.45941469388,5.64208250011 1.459917805,10.27892570909 2.3464180106,14.37244416039 1.98058779139,9.14980129408 3.54770235828,16.37407380518 -1.87679410129,28.41924742365 -5.94856951779,13.21500314562 -9.52519798643,19.11547461844 -14.97351594866,19.11547461844 h -0.003403072 c -1.35612411492,0 -2.82454959942,-0.35395749688 -4.61456536965,-1.12381505256 -7.79303443691,-3.32897025806 -10.90684513986,-23.49746842968 -7.23152758884,-35.18337518883 2.32770111566,-7.38709295967 3.45922249132,-12.37435409055 4.45802406654,-16.76873641419 0.5155653787,-2.26532797997 1.00390618291,-4.40146147358 1.59944374905,-6.62962391637 0.70954047166,-2.65468122652 0.0221199668,-9.5993273151 -2.04694769161,-20.63218249252 -3.83866499774,-12.70530435013 -7.40168117916,-32.86495358433 -9.31420753442,-43.70136235099 -0.26203652911,-1.47246318698 -0.49174387604,-2.77856635043 -0.69082357673,-3.87229501575 -0.65849439456,-3.65815073015 -1.05495226001,-7.28798486055 -1.44290244595,-10.79570365452 -0.50705769918,-4.62622448409 -0.9885923598,-8.99582978294 -1.99590161452,-12.4026706903 l -0.55640224037,-1.8777445209 0.92563553137,0.54686433266 a 14.9990389871994,15.6006766745228 0 0 0 -0.96306932124,-2.22108329285 c -3.10530302344,-5.80490294866 -4.50907014363,-3.42453878222 -7.03074635225,-12.80618223674 -1.91592942707,-7.13224356192 -4.26234743766,-13.42737764375 -8.61657781409,-21.47460133508 -0.80482648225,2.76263826307 -1.73556662132,5.45094545179 -2.62036529101,8.24190031461 -1.70664051097,5.36599565254 -1.75258198036,9.93204736216 0.0340307181,15.17592767828 0.66359900227,1.95384538272 1.17916438095,3.99264056468 1.56711456689,6.08098979622 l 0.70954047167,-0.31502217221 0.16334744671,0.96807375393 c 1.19107513227,7.00127928807 1.14002905517,15.11575490381 -0.14633208768,24.12574298662 -2.24602739231,15.50333836289 -9.0385587181,29.36077436533 -16.39940303559,43.37218187891 -0.81333416175,1.54502447384 -1.70664051096,3.07766043528 -2.64929140137,4.70232534591 -3.69573598187,6.36061621875 -7.51738562057,12.93714651058 -6.30419052156,20.06231092257 0.42878704762,2.51309822777 1.18597052457,5.02796624302 1.99420007862,7.69503598193 1.26594271202,4.19970570036 2.57782689343,8.54630376192 2.47063013152,12.8557362863 -0.12080904912,4.7377210956 -4.2368243991,10.24176017192 -9.37035821922,10.24176017192 -0.5223715223,0 -1.0464445805,-0.0566331995 -1.56200995919,-0.17343917346 a 58.7370193803885,61.0930639596744 0 0 1 -3.53409007106,-0.99816014118 c -2.38215026456,-0.72561286858 -4.84257118067,-1.48131212439 -7.21451222981,-1.48131212439 -1.45481319728,0 -2.75308509147,0.27785663503 -3.96628019048,0.85480735494 -1.37824408165,0.64597243178 -2.56761767802,1.79810408409 -3.71785594863,2.91307019923 -0.35732253967,0.35395749687 -0.71464507936,0.69729626884 -1.08217683446,1.0300163159 -2.91983560999,2.67237910136 -5.434705675,4.12714441349 -8.40899043389,4.85452706956 a 28.5892062465031,29.735969312006 0 0 1 -6.5849439456,0.75923883078 c -3.96117558279,0 -8.22862762815,-0.72384308109 -12.68665169467,-2.15206158096 -1.76959733939,-0.57164135745 -5.45512410584,-1.75031982202 -5.40748110056,-4.65985044629 0.0306276463,-1.87243515844 1.5637114951,-3.29180472089 2.68162058354,-4.3306699742 l 0.58702988662,-0.54155497021 c 2.62717143464,-2.3732850165 5.70524988362,-4.33597933665 8.68974385793,-6.2402706698 1.12301369614,-0.72030350614 2.29707346939,-1.46715382453 3.3962656629,-2.20869478047 3.52898546335,-2.375054804 7.24513987606,-5.01380794316 11.69635779897,-8.2879147892 4.47163635377,-3.29534429585 7.41869653821,-6.69864562825 9.01133414365,-10.41165977041 0.64658364324,-1.5043193617 1.37824408164,-2.99978978597 2.08438148149,-4.44216658572 1.38164715344,-2.83165997496 2.81434038398,-5.75888847406 3.62427147393,-8.82062082198 1.83085263191,-6.94641587607 3.23291821619,-28.8776223821 3.24653050341,-29.07760836784 0.34881486017,-10.22760187204 0.81843876947,-21.15780937537 1.86828642179,-31.76768534403 l 0.0340307181,-0.34333877197 0.26884267271,-0.2035255607 c 0.18036280575,-0.13804342378 0.36072561149,-0.27608684756 0.54449148903,-0.41236048385 0.27564881633,-2.68299782627 0.59043295843,-5.35714671512 0.95286010584,-8.01713730409 1.00730925472,-7.39771168457 3.1920813545,-15.86260522221 -0.13612287228,-22.954143672 -2.64248525774,-5.63146377519 -2.17456288435,-11.17797775113 -2.64248525774,-17.32621947175 -1.01241386244,-13.21500314562 -6.067677031,-25.43715551252 -7.80324365233,-38.5105756594 a 229.348322863939,238.54788522771 0 0 1 -1.99079700681,-40.65201851547 c 0.16334744671,-4.92708835642 0.43048858351,-9.90196097492 1.16214902192,-14.754718257 -0.96647239305,-1.59280873591 -1.97548318368,-2.95908467383 -3.02873390779,-3.91830949035 -4.94296179896,-4.50056957269 -30.02870562067,-20.52953481842 -34.44419128961,-29.09530624266 -4.42399334848,-8.56223184928 -1.2506288889,-25.12744270277 0.90862017235,-34.01531544916 2.10479991232,-8.65426079846 5.84137275586,-8.40295097569 6.78572518217,-18.13324256463 0.94265089041,-9.73029158894 12.08090491313,-27.37861238285 12.08090491313,-27.37861238285 0,0 6.24463676494,-18.30845152558 17.11745118674,-23.77001570228 4.38655955859,-3.62629455542 8.73908839912,-4.19085676293 12.1200402389,-3.97317290235 0.71804815117,-0.18405789838 7.87811123207,-2.02640666959 15.4703644324,-4.05281333916 l -0.0799721874,-0.60703710713 c -5.07227852761,-0.79640436796 -3.51707471203,-2.70423527608 -3.51707471203,-2.70423527608 0,0 -1.36633333032,0.96984354142 -2.4587193802,0.57695071989 -2.79392195315,-1.0052392911 -4.63328226456,-3.4033013324 -5.24753672564,-5.45802460172 -0.61595599698,-2.05295348185 -0.580223743,-17.44125565825 -1.58923453364,-19.76321683771 -1.00901079063,-2.32019139198 -3.68892983826,-6.82253075216 -3.05085387453,-8.72505229783 0.64318057142,-1.9007517582 2.26474428722,-5.00141943077 1.91933249887,-5.70579484954 -0.34541178837,-0.70260563129 -2.73606973245,-5.82791018595 -1.76959733939,-8.78876464727 0.35051639607,-1.07072142803 1.63007139532,-3.362596220259 3.16145370824,-5.896931897849 -0.31138107029,0.34687834693 -0.49174387603,0.55571327009 -0.49174387603,0.55571327009 0,0 0.0391353258,-3.666999667579 2.85858031746,-9.92319842474 2.82454959942,-6.25442896968 8.92285427668,-11.45052502373 8.92285427668,-11.45052502373 l -0.39815940136,5.44740587682 c 0,0 0.95286010582,-4.72356279572 7.08179242934,-6.3995515434 6.12552925173,-1.67598874767 10.3470398277,0.37696473417 10.3470398277,0.37696473417 l -3.47964092215,2.65468122652 c 0,0 5.61506848074,-2.8387391249 11.68614858356,-2.10073774392 6.07108010281,0.73269201852 11.85289910207,5.83144976093 11.85289910207,5.83144976093 l -3.23461975208,0.49023113316 c 0,0 3.23972435979,3.24932982126 7.20260147848,5.7093344245 3.96457865459,2.45646502828 4.60435615421,4.29527422451 4.60435615421,4.29527422451 0,0 -3.26014279064,0.70260563129 -3.69913905368,4.61029639673 -0.44239933485,3.905920977959 -1.36463179441,15.887382246989 -2.92494021769,20.317160320309 -1.18256745276,3.35551707033 -3.20569364174,6.61015625404 -4.11431381408,7.988820704349 l 0.51046077098,1.41052062502 c -2.01632004536,4.83505940724 0.49344541195,8.7852250723 -0.21779659562,14.025565813461 a 4.04625237794218,4.20855463777826 0 0 1 -0.60914985336,1.62466491062 c 24.64504602275,-4.07936015142 54.00845110524,-2.66176037646 69.37502184754,3.40861069486 29.87726892527,11.91420934463 47.11382762525,42.89964862058 81.58524348931,44.08894581006 34.47652047177,1.19283676445 68.94963787173,-22.64089128726 104.56959047048,-13.10704610908 10.34193521999,2.38390374141 17.23655869998,8.34277820122 24.13458525179,15.49094985049 9.19169694938,8.34100841374 18.38169236286,16.68201682747 28.72873219056,22.64089128726 -21.83581024648,8.34277820122 -39.06896587465,4.76603769536 -42.52138222236,34.55864020686 -2.29367039759,25.02479502867 -3.44731174,48.85675329289 -31.02410412406,54.81562775269 -24.13288371588,5.9588744598 -49.41260263054,-7.14994143677 -71.24671134113,8.34277820121 -13.78924695998,9.5320753907 -12.64071022528,27.4086987701 -20.68387043997,40.51397509168 -8.04145867879,17.87485359192 -19.53363216938,29.79083272403 -39.06726433875,27.4086987701 -21.83751178238,-2.38390374142 -39.06726433875,-17.87485359191 -60.90477612114,-16.68378661495 -4.45802406653,0 -8.92455581257,1.12381505257 -13.38428141502,3.36790558271 1.60795142858,16.12276398242 2.6629036886,31.30754059812 1.92273557068,37.1761558962 -0.95286010581,7.5994674578 -0.0408368617,11.79563358319 1.20809049132,14.53172503398 z m -85.49026838727,-143.10678577181 c 1.85807720636,-7.26320783576 -0.34030718065,-19.91541856136 -1.43439476645,-27.27950428373 -0.7895126591,-5.27219691588 -3.11040763115,-10.42404828282 -5.24073058203,-15.14938086602 -4.55501161301,10.1426520728 -11.660625545,19.11901419341 -9.96249271355,25.17168738988 1.9839908632,7.06499163751 9.10832169012,10.60456660621 15.14707261077,20.50298800616 0.42708551172,-1.17336910212 1.23531506577,-3.57143114341 1.23531506577,-3.57143114341 z" id="path5" style="fill:#696969;stroke-width:1.73532" />
      </g>
    </g>
  </g>
</svg>
