<?xml version="1.0" standalone="no"?>
<!DOCTYPE svg PUBLIC "-//W3C//DTD SVG 20010904//EN"
 "http://www.w3.org/TR/2001/REC-SVG-20010904/DTD/svg10.dtd">
<svg version="1.0" xmlns="http://www.w3.org/2000/svg"
 width="140.000000pt" height="140.000000pt" viewBox="0 0 140.000000 140.000000"
 preserveAspectRatio="xMidYMid meet">

<g transform="translate(0.000000,140.000000) scale(0.100000,-0.100000)"
fill="#000000" stroke="none">
<path d="M0 700 l0 -700 700 0 700 0 0 700 0 700 -700 0 -700 0 0 -700z m1278
637 c42 -27 82 -89 82 -126 0 -15 -10 -23 -42 -31 -82 -20 -170 -52 -265 -96
-52 -24 -104 -44 -113 -44 -10 0 -35 19 -55 43 l-36 42 39 -85 c22 -47 61
-129 86 -184 26 -54 45 -100 44 -102 -6 -5 -214 278 -236 321 -12 23 -21 32
-22 23 0 -21 -20 -23 -40 -5 -16 15 5 -16 110 -158 44 -60 94 -129 110 -151
l29 -42 -39 -10 -40 -10 -36 49 c-20 27 -32 54 -28 60 4 8 3 9 -4 5 -7 -4 -39
31 -82 87 -68 91 -82 116 -58 101 6 -4 8 -3 4 4 -9 15 -41 7 -78 -19 -30 -22
-31 -22 -44 -4 -20 27 -18 32 21 58 32 22 33 25 20 43 -14 18 -14 18 -15 -3 0
-26 -61 -76 -87 -71 -13 2 -19 14 -21 42 l-3 38 -17 -33 c-9 -19 -32 -42 -50
-51 -30 -15 -39 -15 -80 -3 -25 8 -49 12 -54 9 -5 -3 -8 -2 -7 3 4 20 -2 22
-20 4 -10 -10 -27 -23 -36 -29 -19 -10 -20 -8 81 -141 2 -2 20 9 40 24 35 27
37 27 50 10 20 -27 18 -31 -21 -55 -21 -13 -32 -26 -28 -33 4 -7 71 -97 148
-202 78 -104 156 -212 175 -238 53 -75 64 -63 68 72 2 90 -1 118 -13 138 -9
13 -13 29 -9 35 4 7 3 8 -4 4 -11 -6 -83 82 -83 101 0 4 8 14 19 21 17 11 23
6 62 -49 43 -61 44 -62 60 -41 10 12 20 19 24 17 3 -3 3 -2 0 3 -3 4 -9 7 -12
7 -13 0 -32 16 -32 26 0 6 5 7 12 3 7 -4 8 -3 4 5 -4 6 -11 9 -16 6 -13 -8
-52 53 -44 67 4 7 4 10 -1 6 -4 -4 -14 -3 -22 3 -16 14 -18 33 -1 23 7 -4 8
-3 4 5 -4 6 -11 9 -16 6 -5 -3 -20 9 -34 27 l-26 33 22 18 c22 18 23 18 36 -1
7 -11 46 -64 86 -117 l72 -97 192 2 c222 1 264 -7 292 -53 18 -29 20 -51 20
-219 l0 -188 -29 -32 -29 -33 -232 0 -232 0 -33 38 c-33 38 -34 38 -58 22 -26
-17 -45 -6 -31 17 4 6 3 8 -3 5 -14 -9 -37 19 -27 34 4 7 3 9 -3 6 -14 -9 -37
19 -27 34 4 7 3 9 -3 6 -6 -4 -23 9 -37 27 -28 37 -33 52 -14 40 7 -4 8 -3 4
5 -4 6 -11 9 -16 6 -12 -8 -83 93 -74 106 4 7 3 9 -3 6 -14 -9 -37 19 -27 34
4 7 3 9 -3 6 -15 -9 -36 19 -27 35 4 7 4 10 -1 6 -9 -9 -35 9 -35 24 0 5 6 6
13 2 7 -4 9 -3 4 2 -5 5 -12 9 -15 9 -13 0 -32 16 -32 26 0 6 6 7 13 3 7 -4 9
-3 4 2 -5 5 -12 9 -15 9 -4 0 -13 4 -19 8 -17 11 -17 30 0 21 7 -4 9 -3 4 2
-5 5 -14 9 -20 9 -7 0 -11 8 -11 18 1 9 -2 15 -6 12 -12 -8 -32 23 -24 37 4 7
4 10 -1 6 -4 -4 -14 -3 -22 3 -16 14 -18 33 -1 23 7 -4 8 -3 4 5 -4 6 -11 9
-16 6 -12 -7 -33 22 -24 36 4 7 3 9 -4 5 -12 -7 -54 47 -50 65 2 7 -4 13 -12
14 -8 0 -14 8 -14 18 1 9 -2 15 -6 12 -5 -3 -16 5 -24 17 -15 21 -13 23 75 82
l91 60 20 -27 c13 -18 29 -27 47 -27 35 0 51 17 50 55 0 28 -1 28 -9 7 -13
-32 -35 -37 -78 -19 -20 9 -62 18 -92 20 -30 2 -81 12 -113 21 -49 15 -57 21
-57 42 0 52 47 111 110 138 30 13 108 15 561 13 l525 -2 42 -28z m-760 -349
c19 -19 14 -31 -23 -55 -41 -27 -60 -29 -51 -7 3 8 2 12 -3 9 -5 -3 -12 -1
-15 4 -7 10 52 61 70 61 5 0 15 -5 22 -12z m119 -360 c77 -107 80 -113 62
-126 -16 -11 -23 -11 -34 -2 -18 15 -20 34 -2 24 7 -4 9 -3 4 2 -5 5 -12 9
-15 9 -13 0 -32 16 -32 26 0 6 5 7 12 3 7 -5 8 -3 4 5 -5 7 -11 10 -14 7 -7
-7 -32 13 -32 26 0 5 6 6 13 2 6 -4 9 -4 5 0 -3 4 -10 8 -15 8 -12 0 -33 19
-33 30 0 5 5 6 12 2 7 -4 8 -3 4 5 -4 6 -11 9 -16 6 -5 -3 -18 8 -30 25 -18
25 -19 34 -10 45 7 8 18 15 24 15 6 0 48 -51 93 -112z"/>
<path d="M806 624 c-13 -13 -16 -45 -16 -193 0 -124 4 -181 12 -189 17 -17
439 -17 456 0 8 8 12 66 12 195 0 170 -1 183 -19 193 -12 6 -102 10 -225 10
-173 0 -207 -2 -220 -16z m338 -50 c13 -12 16 -40 16 -140 0 -161 -3 -164
-128 -164 -127 0 -126 -1 -130 160 -3 92 0 135 8 146 18 21 212 20 234 -2z"/>
</g>
</svg>
